{"title":"Shaolin Warrior 2013 DVDRip XviD AC3-EVO [P2PDL]","uid":9394046,"size":1472567441,"categoryP":"video","categoryS":"movies","magnet":"?xt=urn:btih:c72b7b3ca58cec91cf7671b534118b94ae71690d&amp;dn=Shaolin+Warrior+2013+DVDRip+XviD+AC3-EVO+%5BP2PDL%5D&amp;tr=udp%3A%2F%2Ftracker.openbittorrent.com%3A80&amp;tr=udp%3A%2F%2Fopen.demonii.com%3A1337&amp;tr=udp%3A%2F%2Ftracker.coppersurfer.tk%3A6969&amp;tr=udp%3A%2F%2Fexodus.desync.com%3A6969","seeders":0,"leechers":2,"uploader":"ValidusVyto","files":2,"time":1387945412,"description":"Shaolin.Warrior.2013.DVDRip.XviD.AC3-EVO\n\nInfo:\nGeneral\nComplete name                            : Shaolin.Warrior.2013.DVDRip.XviD.AC3-EVO.[P2PDL]/Shaolin.Warrior.2013.DVDRip.XviD.AC3-EVO.avi\nFormat                                   : AVI\nFormat/Info                              : Audio Video Interleave\nFile size                                : 1.37 GiB\nDuration                                 : 1h 31mn\nOverall bit rate                         : 2 153 Kbps\n\nVideo\nID                                       : 0\nFormat                                   : MPEG-4 Visual\nFormat profile                           : Simple@L3\nFormat settings, BVOP                    : No\nFormat settings, QPel                    : No\nFormat settings, GMC                     : No warppoints\nFormat settings, Matrix                  : Default (H.263)\nCodec ID                                 : XVID\nCodec ID/Hint                            : XviD\nDuration                                 : 1h 31mn\nSource duration                          : 1h 31mn\nBit rate                                 : 1 757 Kbps\nWidth                                    : 720 pixels\nHeight                                   : 400 pixels\nDisplay aspect ratio                     : 16:9\nFrame rate                               : 29.970 fps\nColor space                              : YUV\nChroma subsampling                       : 4:2:0\nBit depth                                : 8 bits\nScan type                                : Progressive\nCompression mode                         : Lossy\nBits/(Pixel*Frame)                       : 0.204\nStream size                              : 1.12 GiB (82%)\nWriting library                          : XviD 1.1.2 (UTC 2006-11-01)\n\nAudio\nID                                       : 1\nFormat                                   : AC-3\nFormat/Info                              : Audio Coding 3\nMode extension                           : CM (complete main)\nFormat settings, Endianness              : Big\nCodec ID                                 : 2000\nDuration                                 : 1h 31mn\nBit rate mode                            : Constant\nBit rate                                 : 384 Kbps\nChannel(s)                               : 6 channels\nChannel positions                        : Front: L C R, Side: L R, LFE\nSampling rate                            : 48.0 KHz\nBit depth                                : 16 bits\nCompression mode                         : Lossy\nStream size                              : 251 MiB (18%)\nAlignment                                : Aligned on interleaves\nInterleave, duration                     : 32 ms (0.96 video frame)\nInterleave, preload duration             : 3392 ms\n\n\n\n\nScreenshots: &lt;a href=&quot;\nhttp://beeimg.com/images/v35964261901.jpg&quot; rel=&quot;nofollow&quot; target=&quot;_NEW&quot;&gt;\nhttp://beeimg.com/images/v35964261901.jpg&lt;/a&gt; &lt;a href=&quot;\nhttp://beeimg.com/images/f20313653512.jpg&quot; rel=&quot;nofollow&quot; target=&quot;_NEW&quot;&gt;\nhttp://beeimg.com/images/f20313653512.jpg&lt;/a&gt;","torrent":{"xt":"urn:btih:c72b7b3ca58cec91cf7671b534118b94ae71690d","amp;dn":"Shaolin+Warrior+2013+DVDRip+XviD+AC3-EVO+%5BP2PDL%5D","amp;tr":["udp%3A%2F%2Ftracker.openbittorrent.com%3A80","udp%3A%2F%2Fopen.demonii.com%3A1337","udp%3A%2F%2Ftracker.coppersurfer.tk%3A6969","udp%3A%2F%2Fexodus.desync.com%3A6969"],"infoHash":"c72b7b3ca58cec91cf7671b534118b94ae71690d","infoHashBuffer":{"type":"Buffer","data":[199,43,123,60,165,140,236,145,207,118,113,181,52,17,139,148,174,113,105,13]},"announce":[],"urlList":[]}}